# xmcd
#
# Track frame offsets:
#	150
#	11521
#	20844
#	30251
#	40253
#	53129
#	66245
#	81475
#	91380
#	106931
#	115143
#	125678
#	136562
#	155878
#	170276
#	179892
#	189999
#	199162
#	210760
#	220804
#	231900
#	243477
#
# Disc length: 3389 seconds
#
# Revision: 1
# Processed by: cddbd v1.5.1PL0 Copyright (c) Steve Scherf et al.
# Submitted via: CDex 1.50Beta5
#
DISCID=320d3b16
DTITLE=Dr.コトー診療所 - Dr.コトー診療所オリジナルサウンドトラック
DYEAR=2003
DGENRE=Soundtrack
TTITLE0=Coto
TTITLE1=Yuuna
TTITLE2=Stage
TTITLE3=ふがらっさ
TTITLE4=Dreamboat
TTITLE5=彩
TTITLE6=I Remember When
TTITLE7=Leading Wire
TTITLE8=Done
TTITLE9=On The Street
TTITLE10=Sunny Place
TTITLE11=ワーリー
TTITLE12=2050
TTITLE13=Kali
TTITLE14=From A Mental Picture
TTITLE15=万象
TTITLE16=Shige
TTITLE17=Salad Days
TTITLE18=Heartwarming
TTITLE19=Pulsation
TTITLE20=銀の竜の背に乗って (Instrumental)
TTITLE21=Shikina
EXTD=
EXTT0=
EXTT1=
EXTT2=
EXTT3=
EXTT4=
EXTT5=
EXTT6=
EXTT7=
EXTT8=
EXTT9=
EXTT10=
EXTT11=
EXTT12=
EXTT13=
EXTT14=
EXTT15=
EXTT16=
EXTT17=
EXTT18=
EXTT19=
EXTT20=
EXTT21=
PLAYORDER=
